<?xml version="1.0" encoding="utf-8"?>
<!-- Generator: Adobe Illustrator 24.2.0, SVG Export Plug-In . SVG Version: 6.00 Build 0)  -->
<svg version="1.1" id="Layer_1" xmlns="http://www.w3.org/2000/svg" xmlns:xlink="http://www.w3.org/1999/xlink" x="0px" y="0px"
	 viewBox="0 0 725 621" style="enable-background:new 0 0 725 621;" xml:space="preserve">
<style type="text/css">
	.st0{fill:#999999;}
	.st1{fill:#FFFFFF;}
	.st2{fill:#DA251D;}
	.st3{fill-rule:evenodd;clip-rule:evenodd;fill:#A5CD39;}
	.st4{fill-rule:evenodd;clip-rule:evenodd;fill:#231F20;}
	.st5{fill-rule:evenodd;clip-rule:evenodd;fill:#EC1C24;}
	.st6{fill:#82C241;}
	.st7{fill:#84C225;}
	.st8{fill:#666666;}
	.st9{fill:#1F1A17;}
	.st10{fill:#888888;}
	.st11{fill:#D82727;}
	.st12{fill:#84C341;}
	.st13{fill:#222222;}
</style>
<path id="aaLayer_24" class="st0" d="M4.1,5L0.2,1.1c-0.2-0.3-0.2-0.7,0-0.9C0.5,0,0.8,0,1.1,0.2L5,4.1l3.9-3.9
	c0.3-0.2,0.7-0.2,0.9,0c0.2,0.2,0.2,0.6,0,0.8L5.9,5L5,5.9L4.1,5z"/>
<path id="abLayer_24" class="st1" d="M14.1,11l-3.9-3.9c-0.2-0.3-0.2-0.7,0-0.9c0.2-0.2,0.6-0.2,0.8,0l3.9,3.9l3.9-3.9
	c0.3-0.2,0.7-0.2,0.9,0c0.2,0.2,0.2,0.6,0,0.8L15.9,11L15,11.9L14.1,11z"/>
<g id="acLayer_6">
	<path class="st2" d="M421.2,56.9h99.2v19.6h-99.2V56.9z M601.4,107.1h-20.7l-12.5-31.9c-2.4-7.7-10.8-13.2-20.6-13.4h-13.8v9.8
		h13.8c4.1,0.2,7.7,2.5,8.8,5.7l11.9,29.7H373.1l11.9-29.7c1.2-3.2,4.7-5.5,8.8-5.7h13.7v-9.8h-13.7c-9.8,0.2-18.3,5.7-20.6,13.4
		l-12.5,31.9h-20.7c-6.7,0-12.1,4.4-12.1,9.8s5.4,9.8,12.1,9.8h3.5c0,0.3,0.1,0.6,0.2,0.8l21.5,80.7c2.3,7.8,10.7,13.3,20.6,13.5
		h168.7c9.8-0.2,18.3-5.7,20.7-13.4l22.6-80.8l0.2-0.9h3.5c6.7,0,12.1-4.4,12.1-9.8S608.1,107.1,601.4,107.1L601.4,107.1
		L601.4,107.1z M422.7,199.2c0,4.1-4.1,7.4-9.1,7.4c-5,0-9.1-3.3-9.1-7.4c0,0,0,0,0,0v-68.8c0-4.1,4.1-7.4,9.1-7.4
		c5,0,9.1,3.3,9.1,7.4V199.2z M479.8,199.2c0,4.1-4.1,7.4-9.1,7.4c-5,0-9.1-3.3-9.1-7.4v-68.8c0-4.1,4.1-7.4,9.1-7.4
		c5,0,9.1,3.3,9.1,7.4L479.8,199.2z M536.9,199.2c0.2,4.1-3.7,7.5-8.7,7.6s-9.2-3-9.4-7.1c0-0.2,0-0.4,0-0.6v-68.8
		c0-4.1,4.1-7.4,9.1-7.4s9.1,3.3,9.1,7.4L536.9,199.2z"/>
</g>
<path id="adLayer_3" class="st1" d="M61,42h2.9l4.2,15c0.1,0.4,0.5,0.7,1,0.7h12.8c0.4,0,0.8-0.2,0.9-0.6l4.7-10.7
	c0.1-0.3,0.1-0.7-0.1-1c-0.2-0.3-0.5-0.5-0.8-0.5H72.4c-0.6,0-1,0.5-1,1c0,0.6,0.5,1,1,1H85l-3.8,8.7H69.8l-4.2-15
	c-0.1-0.4-0.5-0.7-1-0.7H61c-0.6,0-1,0.4-1.1,1C59.9,41.5,60.4,42,61,42C61,42,61,42,61,42z M68.1,65c1.3,0,2.3-1,2.3-2.3
	c0-1.3-1-2.3-2.3-2.3c-1.3,0-2.3,1-2.3,2.3l0,0C65.8,64,66.8,65,68.1,65z M82.6,65h0.2c1.3,0,2.4-1.2,2.3-2.5c0-1.3-1.2-2.4-2.5-2.3
	s-2.4,1.2-2.3,2.5C80.3,63.9,81.3,65,82.6,65z"/>
<g id="ae_Group_">
	<path id="ae_Path_" class="st3" d="M91.7,65h17.5c2.1,0,3.7,1.6,3.8,3.7v17.5c0,2.1-1.7,3.7-3.8,3.7H91.7c-2.1,0-3.7-1.7-3.7-3.7
		V68.7C88,66.7,89.7,65,91.7,65z"/>
	<g id="ae_Group_2">
		<path id="ae_Path_2" class="st4" d="M101.1,68.1h-2v5.4c0.7,0,1.4,0.2,2,0.6V68.1z"/>
		<path id="ae_Compound_Path_" class="st5" d="M99.6,83.3c-0.4,0.7-1.2,1.2-2,1.1c-0.6,0-1.1-0.2-1.6-0.5c-0.5-0.4-0.8-0.9-1-1.5
			c-0.2-0.6-0.3-1.2-0.3-1.9c0-0.7,0.1-1.3,0.3-1.9c0.2-0.6,0.5-1.1,1-1.4c0.4-0.4,1-0.6,1.6-0.6c0.6,0,1.1,0.2,1.5,0.5
			c0.4,0.4,0.7,0.9,0.9,1.4c0.2,0.6,0.3,1.3,0.3,2C100.4,81.5,100.1,82.4,99.6,83.3L99.6,83.3z M103.2,77.4c-0.4-0.9-1-1.8-1.7-2.4
			c-0.8-0.6-1.8-0.9-2.8-0.9c-0.7,0-1.5,0.1-2.2,0.5c-0.7,0.3-1.2,0.8-1.6,1.4h0v-7.8h-3.3v18.7c0,0,3,0.3,3.1-1.6v-0.3l0,0.1
			c0.1,0.2,0.2,0.4,0.3,0.6c0.3,0.4,0.8,0.6,1.2,0.8c0.8,0.3,1.6,0.4,2.4,0.4c1,0,2-0.3,2.8-0.9c0.8-0.6,1.4-1.4,1.7-2.4
			c0.4-1,0.6-2.1,0.6-3.1C103.8,79.4,103.6,78.4,103.2,77.4L103.2,77.4z"/>
		<path id="ae_Path_3" class="st4" d="M108.9,77.4c-0.9-2.6-3.7-3.9-6.3-3c-0.1,0-0.3,0.1-0.4,0.2c-0.1,0.1-0.2,0.1-0.3,0.2
			c0.4,0.4,0.8,0.8,1.1,1.2c0.3-0.1,0.7-0.2,1.1-0.2c2.5,0,3.3,2.7,3.3,4.7c0,2.1-0.8,4.7-3.3,4.7c-0.4,0-0.8-0.1-1.1-0.2
			c-0.3,0.5-0.8,0.9-1.2,1.3c0.1,0.1,0.2,0.1,0.4,0.2c0.8,0.3,1.6,0.4,2.4,0.4c1,0,2-0.3,2.8-0.9c0.8-0.6,1.4-1.4,1.7-2.4
			c0.4-1,0.6-2,0.6-3.1C109.5,79.4,109.3,78.4,108.9,77.4L108.9,77.4z"/>
	</g>
</g>
<g id="afLayer_4">
	<g id="af_Group_">
		<g id="af_Group_2">
			<path id="af_Path_" class="st6" d="M115.4,95.4v9.6h2.1v-7.9h13v7.9h1.8V94.7h-17C115.4,94.7,115.4,95.4,115.4,95.4z"/>
			<path id="af_Path_2" class="st1" d="M116.9,90.9h14.3l2.5,2.8l0.3,1.6l-20.1,0L116.9,90.9L116.9,90.9z"/>
			<path id="af_Path_3" class="st6" d="M116.9,90.9l-2.9,3l0,1.5l2.3,0.1v-1.6l2.3-2.9L116.9,90.9L116.9,90.9z"/>
			<path id="af_Path_4" class="st6" d="M120.1,90.9l-1.6,2.9v1.7h2.2v-1.7l0.9-2.9L120.1,90.9L120.1,90.9z"/>
			<path id="af_Path_5" class="st6" d="M123.3,90.9l-0.3,3l0,1.6h2.2v-1.6l-0.3-3C124.9,90.8,123.3,90.9,123.3,90.9z"/>
			<path id="af_Path_6" class="st6" d="M126.5,90.9l1.1,2.8l0,1.7h2.2v-1.6l-1.7-2.9H126.5z"/>
			<path id="af_Path_7" class="st6" d="M129.8,90.9h1.5l2.9,2.9l0,1.6H132l0-1.6L129.8,90.9L129.8,90.9z"/>
			<path id="af_Rectangle_" class="st6" d="M121.3,96.4h9.7v8.6h-9.7V96.4z"/>
			<path id="af_Rectangle_2" class="st1" d="M123.3,97.1h6.9v4.1h-6.9V97.1z"/>
			<path id="af_Rectangle_3" class="st6" d="M126.4,96.5h0.6v5.7h-0.6V96.5z"/>
		</g>
		<path id="af_Path_8" class="st6" d="M116.9,91l-0.7-1h15.6l-0.6,1C131.3,91,116.9,90.9,116.9,91z"/>
	</g>
	<path class="st1" d="M117.5,97.1h3.8v7.9h-3.8V97.1z"/>
</g>
<g id="agLayer_10">
	<path id="ag_Path_" class="st1" d="M136.4,110.4v9.6h2.1v-7.9h13v7.9h1.8v-10.3h-17C136.4,109.7,136.4,110.4,136.4,110.4z"/>
	<path id="ag_Path_2" class="st7" d="M137.9,105.9h14.3l2.5,2.8l0.3,1.6l-20.1,0L137.9,105.9L137.9,105.9z"/>
	<path id="ag_Path_3" class="st1" d="M137.9,105.9l-2.9,3l0,1.5l2.3,0.1v-1.6l2.3-2.9L137.9,105.9L137.9,105.9z"/>
	<path id="ag_Path_4" class="st1" d="M141.1,105.9l-1.6,2.9v1.7h2.2v-1.7l0.9-2.9L141.1,105.9L141.1,105.9z"/>
	<path id="ag_Path_5" class="st1" d="M144.3,105.9l-0.3,3l0,1.6h2.2v-1.6l-0.3-3C145.9,105.8,144.3,105.9,144.3,105.9z"/>
	<path id="ag_Path_6" class="st1" d="M147.5,105.9l1.1,2.8l0,1.7h2.2v-1.6l-1.7-2.9H147.5z"/>
	<path id="ag_Path_7" class="st1" d="M150.8,105.9h1.5l2.9,2.9l0,1.6H153l0-1.6L150.8,105.9L150.8,105.9z"/>
	<path id="ag_Rectangle_" class="st1" d="M142.3,111.4h9.7v8.6h-9.7V111.4z"/>
	<path id="ag_Rectangle_2" class="st7" d="M144.3,112.1h6.9v4.1h-6.9V112.1z"/>
	<path id="ag_Rectangle_3" class="st1" d="M147.4,111.5h0.6v5.7h-0.6V111.5z"/>
	<path id="ag_Path_8" class="st1" d="M137.9,106l-0.7-1h15.6l-0.6,1C152.3,106,137.9,105.9,137.9,106z"/>
	<path class="st7" d="M138.5,112.1h3.8v7.9h-3.8V112.1z"/>
</g>
<path id="ahLayer_14" class="st8" d="M167.7,135c-0.8,0-1.5-0.2-2.2-0.5c-2-0.8-3.8-2.1-5.3-3.6c-1.6-1.5-2.8-3.3-3.7-5.4
	c-0.7-1.8-0.6-3.2,0.1-4l0.2-0.2c0.6-0.7,1.4-1.2,2.4-1.3c0.8,0.1,1.5,0.6,2,1.2c1.8,2.2,1,3.2,0,4.2l-0.1,0.1
	c0,0.2,0.3,0.9,1.9,2.4c0.6,0.6,1.2,1.1,1.9,1.6c0.2,0.1,0.4,0.2,0.6,0.3l0.1-0.1c1-1,2-1.8,4.2,0c0.7,0.5,1.1,1.2,1.2,2
	c-0.1,0.9-0.6,1.8-1.3,2.3l-0.3,0.3C169,134.8,168.3,135,167.7,135z M159.1,121.1c-0.5,0-1,0.5-1.4,1l-0.3,0.3
	c-0.4,0.3-0.4,1.3,0.1,2.7c0.8,1.9,1.9,3.6,3.4,5c1.4,1.5,3.1,2.6,5,3.4c1.3,0.5,2.4,0.5,2.8,0.1l0.3-0.2c0.5-0.5,1-1,1-1.5
	c-0.1-0.5-0.4-0.9-0.8-1.2c-1.6-1.3-2-0.9-2.8-0.1l-0.1,0.1c-0.4,0.4-1,0.3-1.9-0.2c-0.8-0.5-1.5-1.1-2.1-1.8
	c-1.2-1.3-2.9-3.1-2-3.9l0.1-0.2c0.8-0.8,1.2-1.2-0.1-2.8C160.1,121.5,159.6,121.2,159.1,121.1L159.1,121.1z"/>
<path id="aiLayer_24" class="st7" d="M180.2,142.5l5.4-5.4c0.5-0.5,0.5-1.2,0-1.7c-0.5-0.5-1.2-0.5-1.7,0l-5.4,5.4l-5.4-5.4
	c-0.5-0.5-1.2-0.5-1.7,0c-0.5,0.5-0.5,1.2,0,1.7l5.4,5.4l-5.4,5.4c-0.5,0.5-0.5,1.2,0,1.7c0.5,0.5,1.2,0.5,1.7,0l5.4-5.4l5.4,5.4
	c0.5,0.5,1.2,0.5,1.7,0c0.5-0.5,0.5-1.2,0-1.7L180.2,142.5z"/>
<g id="ajLayer_3">
	<path id="aj_Path_" class="st9" d="M194.6,154.6l-7.6,0.3l6.2,2.1l0.2-1.3L194.6,154.6L194.6,154.6z"/>
	<path id="aj_Path_2" class="st9" d="M192.6,157.6l-5.1,0.8l3.5,2.1c0-0.6,0.1-1.2,0.4-1.7C191.8,158.4,192.2,158,192.6,157.6
		L192.6,157.6z"/>
	<path class="st10" d="M212.3,157.1c-0.6-0.1-1.2-0.2-1.8,0l-1.9-6.2c0,0,0,0,0,0c0,0,0,0,0-0.1c0,0,0,0,0-0.1c0,0,0,0-0.1,0
		c0,0,0,0-0.1,0c0,0,0,0,0,0l-2.3-0.6c-0.2-0.1-0.4,0.1-0.5,0.3c-0.1,0.2,0.1,0.4,0.3,0.5c0,0,0,0,0,0l2.1,0.5l0.5,1.7l0.4,1.3
		l0.9,3c-2,0.9-3,3.2-2.1,5.3c0.9,2,3.2,3,5.3,2.1c2-0.9,3-3.2,2.1-5.3C214.5,158.2,213.5,157.4,212.3,157.1L212.3,157.1z
		 M213.3,161.5c-0.3,1.1-1.4,1.8-2.5,1.5s-1.8-1.4-1.5-2.5s1.4-1.8,2.5-1.5c0,0,0,0,0,0C212.9,159.2,213.6,160.4,213.3,161.5
		L213.3,161.5z M208.7,154c-0.6-0.1-1.2-0.2-1.9-0.2c-0.3,0-0.6,0-0.9,0c-1.1,0.1-2,0.8-3.5,2c-0.9,0.8-2.3,0.9-3.3,0.2l0,0
		c-0.8-0.5-1.7-0.8-2.7-0.9c-0.2,0-0.3,0-0.5,0c-0.1-0.1-0.2-0.1-0.3-0.1h-0.8l-0.3,0.1c-0.1,0.1-0.2,0.2-0.2,0.3v0.6
		c-0.2,0.2-0.4,0.4-0.5,0.6c-0.1,0.1-0.1,0.2-0.1,0.3c0,0.2,0.2,0.4,0.4,0.4c0,0,0,0,0,0c0,0,0,0,0.1,0c0,0,0.1,0,0.3,0
		c-2.1,0.7-3.3,3-2.6,5.1c0.7,2.1,3,3.3,5.1,2.6c1.7-0.5,2.8-2.1,2.8-3.8c0,0,0-0.1,0-0.1l0.5,0.8c0.4,0.8,0.9,2,1.7,2h2.3
		c0.8,0,1.2-1.3,1.7-2l3.3-6.5L208.7,154z M195.7,163c-1.1,0-2.1-0.9-2.1-2.1s0.9-2.1,2.1-2.1c1.1,0,2,0.9,2,2.1
		C197.7,162.1,196.8,163,195.7,163L195.7,163z"/>
</g>
<g id="akLayer_3">
	<path id="ak_Path_" class="st9" d="M223.6,169.6l-7.6,0.3l6.2,2.1l0.2-1.3L223.6,169.6L223.6,169.6z"/>
	<path id="ak_Path_2" class="st9" d="M221.6,172.6l-5.1,0.8l3.5,2.1c0-0.6,0.1-1.2,0.4-1.7C220.8,173.4,221.2,173,221.6,172.6
		L221.6,172.6z"/>
	<path class="st11" d="M241.3,172.1c-0.6-0.1-1.2-0.2-1.8,0l-1.9-6.2c0,0,0,0,0,0c0,0,0,0,0-0.1c0,0,0,0,0-0.1c0,0,0,0-0.1,0
		c0,0,0,0-0.1,0c0,0,0,0,0,0l-2.3-0.6c-0.2-0.1-0.4,0.1-0.5,0.3c-0.1,0.2,0.1,0.4,0.3,0.5c0,0,0,0,0,0l2.1,0.5l0.5,1.7l0.4,1.3
		l0.9,3c-2,0.9-3,3.2-2.1,5.3c0.9,2,3.2,3,5.3,2.1c2-0.9,3-3.2,2.1-5.3C243.5,173.2,242.5,172.4,241.3,172.1L241.3,172.1z
		 M242.3,176.5c-0.3,1.1-1.4,1.8-2.5,1.5s-1.8-1.4-1.5-2.5s1.4-1.8,2.5-1.5c0,0,0,0,0,0C241.9,174.2,242.6,175.4,242.3,176.5
		L242.3,176.5z M237.7,169c-0.6-0.1-1.2-0.2-1.9-0.2c-0.3,0-0.6,0-0.9,0c-1.1,0.1-2,0.8-3.5,2c-0.9,0.8-2.3,0.9-3.3,0.2l0,0
		c-0.8-0.5-1.7-0.8-2.7-0.9c-0.2,0-0.3,0-0.5,0c-0.1-0.1-0.2-0.1-0.3-0.1h-0.8l-0.3,0.1c-0.1,0.1-0.2,0.2-0.2,0.3v0.6
		c-0.2,0.2-0.4,0.4-0.5,0.6c-0.1,0.1-0.1,0.2-0.1,0.3c0,0.2,0.2,0.4,0.4,0.4c0,0,0,0,0,0c0,0,0,0,0.1,0c0,0,0.1,0,0.3,0
		c-2.1,0.7-3.3,3-2.6,5.1c0.7,2.1,3,3.3,5.1,2.6c1.7-0.5,2.8-2.1,2.8-3.8c0,0,0-0.1,0-0.1l0.5,0.8c0.4,0.8,0.9,2,1.7,2h2.3
		c0.8,0,1.2-1.3,1.7-2l3.3-6.5L237.7,169z M224.7,178c-1.1,0-2.1-0.9-2.1-2.1s0.9-2.1,2.1-2.1c1.1,0,2,0.9,2,2.1
		C226.7,177.1,225.8,178,224.7,178L224.7,178z"/>
</g>
<g id="alLayer_9">
	<path id="al_Path_" class="st9" d="M252.6,184.6l-7.6,0.3l6.2,2.1l0.2-1.3L252.6,184.6L252.6,184.6z"/>
	<path id="al_Path_2" class="st9" d="M250.6,187.6l-5.1,0.8l3.5,2.1c0-0.6,0.1-1.2,0.4-1.7C249.8,188.4,250.2,188,250.6,187.6
		L250.6,187.6z"/>
	<path class="st1" d="M270.3,187.1c-0.6-0.1-1.2-0.2-1.8,0l-1.9-6.2c0,0,0,0,0,0c0,0,0,0,0-0.1c0,0,0,0,0-0.1c0,0,0,0-0.1,0
		c0,0,0,0-0.1,0c0,0,0,0,0,0l-2.3-0.6c-0.2-0.1-0.4,0.1-0.5,0.3c-0.1,0.2,0.1,0.4,0.3,0.5c0,0,0,0,0,0l2.1,0.5l0.5,1.7l0.4,1.3
		l0.9,3c-2,0.9-3,3.2-2.1,5.3c0.9,2,3.2,3,5.3,2.1c2-0.9,3-3.2,2.1-5.3C272.5,188.2,271.5,187.4,270.3,187.1L270.3,187.1z
		 M271.3,191.5c-0.3,1.1-1.4,1.8-2.5,1.5s-1.8-1.4-1.5-2.5c0.3-1.1,1.4-1.8,2.5-1.5c0,0,0,0,0,0
		C270.9,189.2,271.6,190.4,271.3,191.5L271.3,191.5z M266.7,184c-0.6-0.1-1.2-0.2-1.9-0.2c-0.3,0-0.6,0-0.8,0c-1.1,0.1-2,0.8-3.5,2
		c-0.9,0.8-2.3,0.9-3.3,0.2l0,0c-0.8-0.5-1.7-0.8-2.7-0.9c-0.2,0-0.3,0-0.5,0c-0.1-0.1-0.2-0.1-0.3-0.1h-0.8l-0.3,0.1
		c-0.1,0.1-0.2,0.2-0.2,0.3v0.6c-0.2,0.2-0.4,0.4-0.5,0.6c-0.1,0.1-0.1,0.2-0.1,0.3c0,0.2,0.2,0.4,0.4,0.4c0,0,0,0,0,0
		c0,0,0,0,0.1,0c0,0,0.1,0,0.3,0c-2.1,0.7-3.3,3-2.6,5.1c0.7,2.1,3,3.3,5.1,2.6c1.7-0.5,2.8-2.1,2.8-3.8c0,0,0-0.1,0-0.1l0.5,0.8
		c0.4,0.8,0.9,2,1.7,2h2.3c0.8,0,1.2-1.3,1.7-2l3.3-6.5L266.7,184z M253.7,193c-1.1,0-2.1-0.9-2.1-2.1s0.9-2.1,2.1-2.1
		c1.1,0,2,0.9,2,2.1C255.7,192.1,254.8,193,253.7,193L253.7,193z"/>
</g>
<path id="amLayer_15" class="st7" d="M288.4,233c-0.6,0-1.1-0.2-1.5-0.7c-1.3-1.6-12.9-15.6-12.9-23c0-7.9,6.4-14.4,14.4-14.4
	s14.4,6.4,14.4,14.4c0,7.4-11.6,21.4-12.9,22.9C289.5,232.7,288.9,233,288.4,233L288.4,233z M288.4,197.8c-6.4,0-11.5,5.2-11.5,11.5
	c0,4.9,7.2,15,11.6,20.3c4.3-5.3,11.5-15.4,11.5-20.3C299.9,203,294.7,197.8,288.4,197.8L288.4,197.8z M288.4,216.8
	c-4.1,0-7.4-3.3-7.4-7.4c0-4.1,3.3-7.4,7.4-7.4c4.1,0,7.4,3.3,7.4,7.4c0,0,0,0,0,0C295.8,213.5,292.5,216.8,288.4,216.8z
	 M288.4,204.8c-2.5,0-4.6,2.1-4.6,4.6c0,2.5,2.1,4.6,4.6,4.6c2.5,0,4.6-2.1,4.6-4.6c0,0,0,0,0,0C293,206.8,290.9,204.8,288.4,204.8z
	"/>
<path id="anLayer_15" class="st8" d="M308.7,248c-0.2,0-0.4-0.1-0.6-0.3c-0.5-0.6-5.1-6.2-5.1-9.1c0-3.1,2.5-5.7,5.7-5.7
	c3.1,0,5.7,2.5,5.7,5.7c0,2.9-4.6,8.4-5.1,9.1C309.1,247.9,308.9,248,308.7,248z M308.9,247L308.9,247L308.9,247z M308.7,234.1
	c-2.5,0-4.6,2-4.6,4.6c0,1.9,2.8,5.9,4.6,8c1.7-2.1,4.6-6.1,4.6-8C313.2,236.2,311.2,234.1,308.7,234.1z M308.7,241.6
	c-1.6,0-2.9-1.3-2.9-2.9c0-1.6,1.3-2.9,2.9-2.9c1.6,0,2.9,1.3,2.9,2.9C311.6,240.3,310.3,241.6,308.7,241.6L308.7,241.6z
	 M308.7,236.9c-1,0-1.8,0.8-1.8,1.8s0.8,1.8,1.8,1.8s1.8-0.8,1.8-1.8S309.7,236.9,308.7,236.9C308.7,236.9,308.7,236.9,308.7,236.9z
	"/>
<path id="aoLayer_15" class="st7" d="M320.7,263c-0.2,0-0.4-0.1-0.6-0.3c-0.5-0.6-5.1-6.2-5.1-9.1c0-3.1,2.5-5.7,5.7-5.7
	c3.1,0,5.7,2.5,5.7,5.7c0,2.9-4.6,8.4-5.1,9.1C321.1,262.9,320.9,263,320.7,263z M320.7,249.1c-2.5,0-4.6,2-4.6,4.6
	c0,1.9,2.8,5.9,4.6,8c1.7-2.1,4.6-6.1,4.6-8C325.2,251.2,323.2,249.1,320.7,249.1z M320.7,256.6c-1.6,0-2.9-1.3-2.9-2.9
	c0-1.6,1.3-2.9,2.9-2.9c1.6,0,2.9,1.3,2.9,2.9c0,0,0,0,0,0C323.6,255.3,322.3,256.6,320.7,256.6L320.7,256.6z M320.7,251.9
	c-1,0-1.8,0.8-1.8,1.8s0.8,1.8,1.8,1.8s1.8-0.8,1.8-1.8S321.7,251.9,320.7,251.9C320.7,251.9,320.7,251.9,320.7,251.9z"/>
<path id="apLayer_15" class="st1" d="M336.4,288c-0.4,0-0.7-0.2-1-0.4c-0.9-1-8.5-10.3-8.5-15.1c0-5.2,4.2-9.4,9.5-9.4
	c5.2,0,9.4,4.2,9.4,9.4c0,4.8-7.6,14.1-8.5,15.1C337.2,287.8,336.8,288,336.4,288z M336.4,264.9c-4.2,0-7.6,3.4-7.6,7.6
	c0,3.2,4.7,9.9,7.6,13.4c2.8-3.5,7.6-10.1,7.6-13.4C344,268.3,340.6,264.9,336.4,264.9z M336.4,277.3c-2.7,0-4.9-2.2-4.9-4.9
	c0-2.7,2.2-4.9,4.9-4.9c2.7,0,4.9,2.2,4.9,4.9C341.3,275.1,339.1,277.3,336.4,277.3L336.4,277.3z M336.4,269.4c-1.7,0-3,1.4-3,3
	c0,1.7,1.4,3,3,3c1.7,0,3-1.4,3-3c0,0,0,0,0,0C339.5,270.8,338.1,269.4,336.4,269.4L336.4,269.4z"/>
<path id="aqLayer_15" class="st7" d="M355.4,313c-0.4,0-0.7-0.2-1-0.4c-0.9-1-8.5-10.3-8.5-15.1c0-5.2,4.2-9.4,9.5-9.4
	c5.2,0,9.4,4.2,9.4,9.4c0,4.8-7.6,14.1-8.5,15.1C356.2,312.8,355.8,313,355.4,313z M355.4,289.9c-4.2,0-7.6,3.4-7.6,7.6
	c0,3.2,4.7,9.9,7.6,13.4c2.8-3.5,7.6-10.1,7.6-13.4C363,293.3,359.6,289.9,355.4,289.9z M355.4,302.3c-2.7,0-4.9-2.2-4.9-4.9
	c0-2.7,2.2-4.9,4.9-4.9c2.7,0,4.9,2.2,4.9,4.9C360.3,300.1,358.1,302.3,355.4,302.3L355.4,302.3z M355.4,294.4c-1.7,0-3,1.4-3,3
	c0,1.7,1.4,3,3,3c1.7,0,3-1.4,3-3c0,0,0,0,0,0C358.5,295.8,357.1,294.4,355.4,294.4L355.4,294.4z"/>
<path id="arLayer_25" class="st1" d="M366.2,313h23.9c0.7,0,1.2,0.5,1.2,1.2c0,0,0,0,0,0c0,0.7-0.5,1.2-1.2,1.2c0,0,0,0,0,0h-23.9
	c-0.7,0-1.2-0.5-1.2-1.2c0,0,0,0,0,0C365,313.5,365.5,313,366.2,313z M366.2,322.8h23.9c0.7,0,1.2,0.5,1.2,1.2c0,0,0,0,0,0
	c0,0.7-0.5,1.2-1.2,1.2c0,0,0,0,0,0h-23.9c-0.7,0-1.2-0.5-1.2-1.2c0,0,0,0,0,0C365,323.3,365.5,322.8,366.2,322.8
	C366.2,322.8,366.2,322.8,366.2,322.8z M366.2,332.6h23.9c0.7,0,1.2,0.5,1.2,1.2c0,0,0,0,0,0c0,0.7-0.5,1.2-1.2,1.2c0,0,0,0,0,0
	h-23.9c-0.7,0-1.2-0.5-1.2-1.2c0,0,0,0,0,0C365,333.1,365.5,332.6,366.2,332.6C366.2,332.6,366.2,332.6,366.2,332.6z"/>
<path class="st12" d="M392,342.1c0-0.3,0.1-0.5,0.1-0.8c0.4-2.7,2.3-5,4.9-5.9c3.2-1.2,6.8,0,8.7,2.8c0.5,0.6,0.8,1.4,1,2.1
	c0,0.1,0,0.2,0,0.2c-0.5,0.3-0.8,0.7-0.8,1.2c0,0.1,0,0.1,0,0.2h-0.2c0-0.2-0.1-0.5-0.1-0.7c-0.1-0.3-0.1-0.5-0.2-0.8
	c0-0.1-0.1-0.1-0.1-0.1c-0.8,0-1.6,0-2.4,0c0,0,0,0,0,0l0.2,1.6h-1.1c0-0.3-0.1-0.7-0.1-1c0-0.2-0.1-0.3-0.1-0.5
	c0-0.1-0.1-0.1-0.1-0.1c-1.2,0-2.4,0-3.7,0c0,0-0.1,0.1-0.1,0.1c-0.1,0.5-0.1,1-0.2,1.5h2.7l0,0c0,0-0.1,0-0.1,0.1
	c-0.4,0.1-0.7,0.5-0.8,0.8c0,0.1-0.1,0.1-0.2,0.1c-0.5,0-1,0-1.5,0c0,0.2,0,0.4,0,0.5c0,0.3,0.1,0.6,0.1,0.9c0,0.1,0.1,0.1,0.2,0.1
	c0.5,0,0.9,0,1.4,0c0.1,0,0.2,0,0.2,0.1c0.1,0.3,0.1,0.6,0.2,0.9h-1.6c0,0,0,0.1,0,0.1c0.2,0.8,0.6,1.5,1.1,2.1
	c0.1,0.1,0.2,0.2,0.3,0.3c0.2,0.3,0.5,0.4,0.9,0.3c0.1,0,0.1,0,0.1,0.1c0.1,0.1,0.1,0.2,0.2,0.3c0.2,0.2,0.3,0.4,0.2,0.6v0
	c0,0.5,0,0.5-0.4,0.5c-2,0.2-4.1-0.5-5.6-1.9c-1.4-1.2-2.3-2.9-2.5-4.7l-0.1-0.5V342.1z M401.2,339.3c-0.1-0.2-0.1-0.3-0.2-0.4
	c-0.3-0.8-0.7-1.5-1.3-2.1c-0.3-0.2-0.2-0.2-0.5,0c-0.1,0.1-0.2,0.1-0.2,0.2c-0.6,0.6-1,1.4-1.2,2.2c0,0,0,0,0,0.1L401.2,339.3z
	 M393.5,343c0,0.5,0.1,1,0.3,1.5c0,0.1,0.1,0.2,0.2,0.1c0.8,0,1.5,0,2.3,0c0,0,0.1,0,0.1,0l-0.2-1.6H393.5z M393.5,342h2.8l0.2-1.6
	h-2.2c-0.4,0-0.4,0-0.6,0.4C393.7,341.2,393.6,341.6,393.5,342L393.5,342z M404.6,339.3c-0.5-1.1-2.6-2.6-3.5-2.6c0,0,0,0,0,0
	c0.5,0.7,0.9,1.5,1.2,2.4c0,0.1,0.1,0.1,0.2,0.1c0.5,0,1.1,0,1.6,0L404.6,339.3L404.6,339.3z M394.5,345.7c0.4,1,2.6,2.6,3.5,2.6
	c-0.1-0.1-0.2-0.2-0.2-0.4c-0.4-0.6-0.7-1.3-0.9-2.1c0,0-0.1-0.1-0.1-0.1C395.9,345.7,395.2,345.7,394.5,345.7z M394.4,339.3
	c0.1,0,0.1,0,0.2,0c0.6,0,1.3,0,1.9,0c0.1,0,0.3-0.1,0.3-0.2c0,0,0,0,0,0l0,0c0.2-0.8,0.6-1.6,1.1-2.3c0,0,0-0.1,0-0.1
	C396.5,337.1,395.2,338,394.4,339.3L394.4,339.3z M405.5,347.3l0.1-0.5h-4.3c-0.3,0-0.5-0.1-0.6-0.4c0,0,0,0,0,0l0,0
	c-0.2-0.9-0.5-1.8-0.7-2.7c-0.1-0.2,0-0.5,0.3-0.6c0.1,0,0.1,0,0.2,0h6l0.2-0.9c0-0.1,0-0.1,0-0.2c0-0.3,0.3-0.5,0.6-0.5l0,0
	c0.4,0,0.7,0,1.1,0c0.3,0,0.6,0.2,0.6,0.5c0,0.3-0.2,0.6-0.5,0.6c0,0-0.1,0-0.1,0c-0.2,0-0.4,0-0.6,0c-0.2,0-0.2,0-0.2,0.2
	c-0.4,1.6-0.8,3.2-1.2,4.8l-0.1,0.4c0,0.3-0.3,0.5-0.6,0.5h-4.1c-0.3,0-0.6-0.2-0.6-0.5c0-0.3,0.2-0.6,0.5-0.6c0.1,0,0.1,0,0.2,0
	h3.6L405.5,347.3z M404.9,344.7c0.4,0,0.8,0,1.3,0c0,0,0.1,0,0.1-0.1c0-0.2,0.1-0.3,0.1-0.5h-1.5L404.9,344.7z M402.7,344.1h-1.4
	c0,0.1,0.1,0.3,0.1,0.4c0,0.1,0.1,0.1,0.2,0.1c0.3,0,0.5,0,0.8,0h0.3V344.1z M404.9,345.7c0.3,0,0.7,0,1,0c0,0,0.1,0,0.1-0.1
	c0-0.1,0.1-0.3,0.1-0.5h-1.2L404.9,345.7z M404.3,345.2h-1.1v0.5h1.1L404.3,345.2z M404.3,344.1h-1.1v0.5h1.1L404.3,344.1z
	 M401.6,345.2c0,0.2,0.1,0.3,0.1,0.5c0,0,0.1,0.1,0.1,0.1c0.3,0,0.6,0,0.9,0v-0.5L401.6,345.2z M405.4,348.9c0.3,0,0.5,0.2,0.5,0.5
	c0,0.3-0.2,0.5-0.5,0.5c-0.3,0-0.5-0.2-0.5-0.5C404.9,349.2,405.1,348.9,405.4,348.9L405.4,348.9z M401.7,349.5
	c0-0.3,0.2-0.5,0.5-0.5c0.3,0,0.5,0.2,0.5,0.5c0,0.3-0.2,0.5-0.5,0.5c0,0,0,0,0,0C401.9,350,401.7,349.8,401.7,349.5L401.7,349.5z"
	/>
<path class="st1" d="M410,357.1c0-0.3,0.1-0.5,0.1-0.8c0.4-2.7,2.3-5,4.9-5.9c3.2-1.2,6.8,0,8.7,2.8c0.5,0.6,0.8,1.4,1,2.1
	c0,0.1,0,0.2,0,0.2c-0.5,0.3-0.8,0.7-0.8,1.2c0,0.1,0,0.1,0,0.2h-0.2c0-0.2-0.1-0.5-0.1-0.7c-0.1-0.3-0.1-0.5-0.2-0.8
	c0-0.1-0.1-0.1-0.1-0.1c-0.8,0-1.6,0-2.4,0c0,0,0,0,0,0l0.2,1.6h-1.1c0-0.3-0.1-0.7-0.1-1c0-0.2-0.1-0.3-0.1-0.5
	c0-0.1-0.1-0.1-0.1-0.1c-1.2,0-2.4,0-3.7,0c0,0-0.1,0.1-0.1,0.1c-0.1,0.5-0.1,1-0.2,1.5h2.7l0,0c0,0-0.1,0-0.1,0.1
	c-0.4,0.1-0.7,0.5-0.8,0.8c0,0.1-0.1,0.1-0.2,0.1c-0.5,0-1,0-1.5,0c0,0.2,0,0.4,0,0.5c0,0.3,0.1,0.6,0.1,0.9c0,0.1,0.1,0.1,0.2,0.1
	c0.5,0,0.9,0,1.4,0c0.1,0,0.2,0,0.2,0.1c0.1,0.3,0.1,0.6,0.2,0.9h-1.6c0,0,0,0.1,0,0.1c0.2,0.8,0.6,1.5,1.1,2.1
	c0.1,0.1,0.2,0.2,0.3,0.3c0.2,0.3,0.5,0.4,0.9,0.3c0.1,0,0.1,0,0.1,0.1c0.1,0.1,0.1,0.2,0.2,0.3c0.2,0.2,0.3,0.4,0.2,0.6v0
	c0,0.5,0,0.5-0.4,0.5c-2,0.2-4.1-0.5-5.6-1.9c-1.4-1.2-2.3-2.9-2.5-4.7l-0.1-0.5V357.1z M419.2,354.3c-0.1-0.2-0.1-0.3-0.2-0.4
	c-0.3-0.8-0.7-1.5-1.3-2.1c-0.3-0.2-0.2-0.2-0.5,0c-0.1,0.1-0.2,0.1-0.2,0.2c-0.6,0.6-1,1.4-1.2,2.2c0,0,0,0,0,0.1L419.2,354.3z
	 M411.5,358c0,0.5,0.1,1,0.3,1.5c0,0.1,0.1,0.2,0.2,0.1c0.8,0,1.5,0,2.3,0c0,0,0.1,0,0.1,0l-0.2-1.6H411.5z M411.5,357h2.8l0.2-1.6
	h-2.2c-0.4,0-0.4,0-0.6,0.4C411.7,356.2,411.6,356.6,411.5,357L411.5,357z M422.6,354.3c-0.5-1.1-2.6-2.6-3.5-2.6c0,0,0,0,0,0
	c0.5,0.7,0.9,1.5,1.2,2.4c0,0.1,0.1,0.1,0.2,0.1c0.5,0,1.1,0,1.6,0L422.6,354.3L422.6,354.3z M412.5,360.7c0.4,1,2.6,2.6,3.5,2.6
	c-0.1-0.1-0.2-0.2-0.2-0.4c-0.4-0.6-0.7-1.3-0.9-2.1c0,0-0.1-0.1-0.1-0.1C413.9,360.7,413.2,360.7,412.5,360.7z M412.4,354.3
	c0.1,0,0.1,0,0.2,0c0.6,0,1.3,0,1.9,0c0.1,0,0.3-0.1,0.3-0.2c0,0,0,0,0,0l0,0c0.2-0.8,0.6-1.6,1.1-2.3c0,0,0-0.1,0-0.1
	C414.5,352.1,413.2,353,412.4,354.3L412.4,354.3z M423.5,362.3l0.1-0.5h-4.3c-0.3,0-0.5-0.1-0.6-0.4c0,0,0,0,0,0l0,0
	c-0.2-0.9-0.5-1.8-0.7-2.7c-0.1-0.2,0-0.5,0.3-0.6c0.1,0,0.1,0,0.2,0h6l0.2-0.9c0-0.1,0-0.1,0-0.2c0-0.3,0.3-0.5,0.6-0.5l0,0
	c0.4,0,0.7,0,1.1,0c0.3,0,0.6,0.2,0.6,0.5c0,0.3-0.2,0.6-0.5,0.6c0,0-0.1,0-0.1,0c-0.2,0-0.4,0-0.6,0c-0.2,0-0.2,0-0.2,0.2
	c-0.4,1.6-0.8,3.2-1.2,4.8l-0.1,0.4c0,0.3-0.3,0.5-0.6,0.5h-4.1c-0.3,0-0.6-0.2-0.6-0.5c0-0.3,0.2-0.6,0.5-0.6c0.1,0,0.1,0,0.2,0
	h3.6L423.5,362.3z M422.9,359.7c0.4,0,0.8,0,1.3,0c0,0,0.1,0,0.1-0.1c0-0.2,0.1-0.3,0.1-0.5h-1.5L422.9,359.7z M420.7,359.1h-1.4
	c0,0.1,0.1,0.3,0.1,0.4c0,0.1,0.1,0.1,0.2,0.1c0.3,0,0.5,0,0.8,0h0.3V359.1z M422.9,360.7c0.3,0,0.7,0,1,0c0,0,0.1,0,0.1-0.1
	c0-0.1,0.1-0.3,0.1-0.5h-1.2L422.9,360.7z M422.3,360.2h-1.1v0.5h1.1L422.3,360.2z M422.3,359.1h-1.1v0.5h1.1L422.3,359.1z
	 M419.6,360.2c0,0.2,0.1,0.3,0.1,0.5c0,0,0.1,0.1,0.1,0.1c0.3,0,0.6,0,0.9,0v-0.5L419.6,360.2z M423.4,363.9c0.3,0,0.5,0.2,0.5,0.5
	c0,0.3-0.2,0.5-0.5,0.5c-0.3,0-0.5-0.2-0.5-0.5C422.9,364.2,423.1,363.9,423.4,363.9L423.4,363.9z M419.7,364.5
	c0-0.3,0.2-0.5,0.5-0.5c0.3,0,0.5,0.2,0.5,0.5c0,0.3-0.2,0.5-0.5,0.5c0,0,0,0,0,0C419.9,365,419.7,364.8,419.7,364.5L419.7,364.5z"
	/>
<path id="auForma_1" class="st2" d="M437.6,379.6c-0.5,0.5-1.3,0.5-1.8,0l-6.9-6.5c-0.5-0.4-0.8-1-0.9-1.6c-0.1-1.4,0-4.2,0-5.6
	c0-0.5,0.5-1,1-1c1.8,0,5.8-0.1,6.1,0.3l7.6,6.9c0.5,0.5,0,1.7-0.4,2.2L437.6,379.6z M431.5,367.1c-0.4-0.4-1.1-0.4-1.5,0
	c-0.4,0.4-0.4,1.1,0,1.5c0.4,0.4,1.1,0.4,1.5,0l0,0C432,368.2,432,367.5,431.5,367.1L431.5,367.1z"/>
<path id="avForma_1" class="st1" d="M453.6,394.6c-0.5,0.5-1.3,0.5-1.8,0l-6.9-6.5c-0.5-0.4-0.8-1-0.9-1.6c-0.1-1.4,0-4.2,0-5.6
	c0-0.5,0.5-1,1-1c1.8,0,5.8-0.1,6.1,0.3l7.6,6.9c0.5,0.5,0,1.7-0.4,2.2L453.6,394.6z M447.5,382.1c-0.4-0.4-1.1-0.4-1.5,0
	c-0.4,0.4-0.4,1.1,0,1.5c0.4,0.4,1.1,0.4,1.5,0l0,0C448,383.2,448,382.5,447.5,382.1L447.5,382.1z"/>
<path id="awLayer_18" class="st1" d="M479.8,413.6l-4.8-4.8c2.9-3.6,2.4-8.9-1.2-11.9s-8.9-2.4-11.9,1.2s-2.4,8.9,1.2,11.9
	c3.1,2.5,7.6,2.5,10.7,0l4.8,4.8c0.3,0.3,0.8,0.4,1.2,0C480.1,414.5,480.1,414,479.8,413.6C479.8,413.6,479.8,413.6,479.8,413.6z
	 M468.4,410.2c-3.7,0-6.8-3-6.8-6.8s3-6.8,6.8-6.8s6.8,3,6.8,6.8C475.2,407.2,472.2,410.2,468.4,410.2z"/>
<path id="axLayer_18" class="st13" d="M499.8,433.6l-4.8-4.8c2.9-3.6,2.4-8.9-1.2-11.9s-8.9-2.4-11.9,1.2s-2.4,8.9,1.2,11.9
	c3.1,2.5,7.6,2.5,10.7,0l4.8,4.8c0.3,0.3,0.8,0.4,1.2,0C500.1,434.5,500.1,434,499.8,433.6C499.8,433.6,499.8,433.6,499.8,433.6z
	 M488.4,430.2c-3.7,0-6.8-3-6.8-6.8s3-6.8,6.8-6.8s6.8,3,6.8,6.8C495.2,427.2,492.2,430.2,488.4,430.2z"/>
<g id="ay_Group_">
	<path id="ay_Path_" class="st10" d="M507,448.2c0,1-0.8,1.8-1.8,1.8s-1.8-0.8-1.8-1.8s0.8-1.8,1.8-1.8
		C506.2,446.3,507,447.1,507,448.2"/>
	<path id="ay_Path_2" class="st10" d="M522.7,448.2c0,1-0.8,1.8-1.8,1.8c-1,0-1.8-0.8-1.8-1.8c0-1,0.8-1.8,1.8-1.8
		C521.9,446.3,522.7,447.1,522.7,448.2"/>
	<path id="ay_Compound_Path_" class="st10" d="M525.6,441.4l-2.5-2.4c-0.4-0.5-0.9-0.7-1.5-0.7h-3.6c-0.4,0-0.8,0.4-0.8,0.8v8
		c0,0.4,0.4,0.8,0.8,0.8c0.2-1.5,1.6-2.6,3.2-2.4c1.2,0.2,2.2,1.2,2.4,2.4h1.8c0.4,0,0.8-0.4,0.8-0.8v-4
		C526.2,442.4,526,441.8,525.6,441.4 M519.1,443v-3.2h2.6c0.1,0,0.3,0.2,0.3,0.2l2.1,2.3c0.2,0.2,0.3,0.4,0.3,0.7H519.1z"/>
	<path id="ay_Path_3" class="st10" d="M515.7,435h-14.9c-0.4,0-0.8,0.4-0.8,0.8V447c0,0.4,0.4,0.8,0.8,0.8h1.6
		c0.2-1.5,1.6-2.6,3.2-2.4c1.3,0.2,2.2,1.2,2.4,2.4h7.7c0.4,0,0.8-0.4,0.8-0.8v-11.2C516.5,435.4,516.2,435,515.7,435"/>
</g>
<g id="az_Group_">
	<path id="az_Path_" class="st7" d="M534,463.2c0,1-0.8,1.8-1.8,1.8s-1.8-0.8-1.8-1.8s0.8-1.8,1.8-1.8
		C533.2,461.3,534,462.1,534,463.2"/>
	<path id="az_Path_2" class="st7" d="M549.7,463.2c0,1-0.8,1.8-1.8,1.8c-1,0-1.8-0.8-1.8-1.8c0-1,0.8-1.8,1.8-1.8
		C548.9,461.3,549.7,462.1,549.7,463.2"/>
	<path id="az_Compound_Path_" class="st7" d="M552.6,456.4l-2.5-2.4c-0.4-0.5-0.9-0.7-1.5-0.7h-3.6c-0.4,0-0.8,0.4-0.8,0.8v8
		c0,0.4,0.4,0.8,0.8,0.8c0.2-1.5,1.6-2.6,3.2-2.4c1.2,0.2,2.2,1.2,2.4,2.4h1.8c0.4,0,0.8-0.4,0.8-0.8v-4
		C553.2,457.4,553,456.8,552.6,456.4 M546.1,458v-3.2h2.6c0.1,0,0.3,0.2,0.3,0.2l2.1,2.3c0.2,0.2,0.3,0.4,0.3,0.7H546.1z"/>
	<path id="az_Path_3" class="st7" d="M542.7,450h-14.9c-0.4,0-0.8,0.4-0.8,0.8V462c0,0.4,0.4,0.8,0.8,0.8h1.6
		c0.2-1.5,1.6-2.6,3.2-2.4c1.3,0.2,2.2,1.2,2.4,2.4h7.7c0.4,0,0.8-0.4,0.8-0.8v-11.2C543.5,450.4,543.2,450,542.7,450"/>
</g>
<g id="baLayer_14">
	<path class="st8" d="M562.7,473.8L562.7,473.8c-0.9,0-1.8-0.3-2.4-1c-1.4-1.5-1.1-4.3-1.1-4.3c-0.1-1.8,1.3-3.4,3.1-3.5
		c0.1,0,0.2,0,0.3,0c1.8-0.1,3.4,1.3,3.5,3.1c0,0.1,0,0.3,0,0.4c0,0.1,0.3,2.8-1.1,4.3C564.5,473.5,563.6,473.8,562.7,473.8
		L562.7,473.8z M562.8,466.3c-0.9,0-2.1,0.3-2.2,2.3c-0.2,1.2,0.1,2.3,0.7,3.3c0.4,0.4,0.9,0.6,1.4,0.6l0,0.7l0-0.7
		c0.5,0,1-0.2,1.4-0.6c0.6-0.9,0.9-2.1,0.7-3.2l0,0l0-0.2C564.7,466.6,563.5,466.3,562.8,466.3z M554.7,480c-0.3,0-0.6,0.3-0.7,0
		c-0.4-4.3,0.9-4.7,2.9-5.2c1.3-0.2,2.4-0.8,3.2-1.8c0.2-0.3,0.7-0.3,0.9-0.1c0,0,0,0,0,0c0.3,0.2,0.4,0.7,0.1,1
		c-1,1.3-2.4,2.2-4,2.5c-1.5,0.4-2.2,0-1.9,3.5C555.4,480.3,555.2,480,554.7,480L554.7,480z M570.6,480L570.6,480
		c-0.4,0-0.7,0.2-0.7-0.1c0.3-3.5-0.4-3.4-1.9-3.8c-1.6-0.2-3-1.1-4-2.3c-0.2-0.2-0.2-0.6,0.1-0.8c0,0,0,0,0.1,0
		c0.3-0.2,0.7-0.1,0.9,0.2c0.8,1.1,1.9,1.8,3.2,2c2,0.5,3.3,0.6,2.9,4.9C571.3,480.4,571,480,570.6,480L570.6,480z"/>
</g>
<g id="bbLayer_14">
	<path class="st8" d="M580.4,489.5L580.4,489.5c-0.9,0-1.7-0.3-2.3-1c-1.3-1.5-1-4.2-1-4.2c-0.1-1.8,1.2-3.3,3-3.4
		c0.1,0,0.2,0,0.3,0c1.8-0.1,3.3,1.2,3.4,3c0,0.1,0,0.2,0,0.4c0,0.1,0.3,2.7-1,4.2C582.1,489.2,581.3,489.6,580.4,489.5L580.4,489.5
		z M580.5,482.3c-0.9,0-2,0.3-2.1,2.2c-0.2,1.1,0.1,2.3,0.7,3.2c0.3,0.4,0.8,0.6,1.3,0.5l0,0.6l0-0.6c0.5,0,1-0.2,1.3-0.5
		c0.6-0.9,0.8-2,0.7-3.1l0,0l0-0.2C582.4,482.6,581.2,482.3,580.5,482.3z M572.7,495.8c-0.3,0-0.6,0.2-0.6-0.1
		c-0.4-4.2,0.9-4.6,2.8-5.1c1.2-0.2,2.4-0.8,3.1-1.8c0.2-0.3,0.6-0.3,0.9-0.1c0,0,0,0,0,0c0.3,0.2,0.3,0.6,0.1,0.9
		c-0.9,1.3-2.3,2.1-3.8,2.4c-1.4,0.4-2.2,0.1-1.9,3.5C573.4,495.9,573.1,495.8,572.7,495.8L572.7,495.8z M588.1,495.8L588.1,495.8
		c-0.4,0-0.7,0.1-0.6-0.2c0.3-3.4-0.4-3.4-1.9-3.7c-1.5-0.2-2.9-1.1-3.8-2.3c-0.2-0.2-0.2-0.6,0.1-0.8c0,0,0,0,0,0
		c0.3-0.2,0.7-0.1,0.9,0.2c0.8,1,1.9,1.7,3.1,1.9c1.9,0.5,3.2,0.7,2.8,4.9C588.7,496,588.5,495.8,588.1,495.8L588.1,495.8z
		 M579.5,496c-0.2,0-0.3-0.1-0.4-0.2l-1.5-1.5c-0.2-0.2-0.2-0.6,0-0.8c0.2-0.2,0.6-0.2,0.8,0l0,0l1.1,1.1l2.9-2.8
		c0.2-0.2,0.6-0.2,0.8,0c0.2,0.2,0.2,0.6,0,0.8l-3.3,3.2C579.8,495.9,579.7,496,579.5,496L579.5,496z"/>
</g>
<g id="bcLayer_14">
	<path class="st1" d="M596.9,504L596.9,504c-0.8,0-1.6-0.3-2.2-0.9c-1.2-1.4-1-3.9-1-3.9c-0.1-1.6,1.1-3,2.8-3.1c0.1,0,0.2,0,0.3,0
		c1.7-0.1,3.1,1.2,3.2,2.8c0,0.1,0,0.2,0,0.3c0,0.1,0.3,2.5-1,3.9C598.5,503.7,597.7,504,596.9,504L596.9,504z M596.9,497.2
		c-0.8,0-1.9,0.3-2,2c-0.1,1.1,0.1,2.1,0.7,3c0.3,0.3,0.8,0.5,1.2,0.5l0,0.6l0-0.6c0.5,0,0.9-0.2,1.3-0.5c0.5-0.8,0.8-1.9,0.7-2.9
		l0,0l0-0.2C598.7,497.5,597.6,497.2,596.9,497.2z M589.7,510.7c-0.3,0-0.6-0.2-0.6-0.5c-0.4-3.9,0.8-4.5,2.6-5
		c1.2-0.2,2.2-0.8,2.9-1.8c0.2-0.3,0.6-0.3,0.8-0.1s0.3,0.6,0.1,0.8l0,0c-0.9,1.2-2.2,2-3.6,2.2c-1.3,0.4-2,0.5-1.7,3.7
		C590.3,510.3,590.1,510.6,589.7,510.7C589.7,510.7,589.7,510.7,589.7,510.7L589.7,510.7z M604,510.7L604,510.7
		c-0.4,0-0.6-0.3-0.6-0.6c0,0,0,0,0,0c0.3-3.2-0.4-3.3-1.7-3.7c-1.4-0.3-2.7-1.1-3.6-2.2c-0.2-0.3-0.2-0.6,0.1-0.8s0.6-0.2,0.8,0.1
		c0,0,0,0,0,0c0.7,1,1.8,1.6,2.9,1.8c1.8,0.5,3,1.1,2.6,5C604.6,510.4,604.4,510.7,604,510.7L604,510.7z M596,510
		c-0.1,0-0.3-0.1-0.4-0.2l-1.4-1.4c-0.2-0.2-0.2-0.5,0-0.8c0.2-0.2,0.5-0.2,0.8,0c0,0,0,0,0,0l1,1l2.7-2.6c0.2-0.2,0.6-0.2,0.8,0
		s0.2,0.6,0,0.8l-3.1,3C596.3,509.9,596.2,510,596,510z"/>
</g>
<g id="bdLayer_14">
	<path class="st7" d="M617.4,523.6L617.4,523.6c-1.3,0-2.6-0.5-3.4-1.4c-1.9-2.2-1.5-6.1-1.5-6.2c0.2-3.7,2.6-5,4.8-5
		c2.4,0,4.9,1.3,5,5c0,0.2,0.4,4-1.5,6.1C620,523.1,618.7,523.6,617.4,523.6L617.4,523.6z M617.5,512.9c-1.3,0-3,0.4-3.1,3.2
		c-0.1,1-0.1,3.5,1,4.8c0.5,0.5,1.2,0.8,2,0.8l0,0.9l0-0.9c0.7,0,1.5-0.2,2-0.8c1.1-1.2,1.1-3.5,1.1-4.5l0,0l0-0.3
		C620.3,513.3,618.6,512.9,617.5,512.9z M606,534c-0.5,0-0.9-0.3-0.9-0.8c-0.6-6.1,1.3-7,4.2-7.8c1.8-0.3,3.5-1.3,4.6-2.8
		c0.3-0.4,0.9-0.5,1.3-0.2c0,0,0,0,0,0c0.4,0.3,0.5,0.9,0.2,1.3c-1.4,1.8-3.4,3.1-5.7,3.5c-2.1,0.6-3.2,0.7-2.7,5.7
		c0.1,0.5-0.3,0.9-0.7,0.9C606.2,534,606.2,534,606,534L606,534z M628.8,534L628.8,534c-0.5,0-0.9-0.3-1-0.8c0,0,0-0.1,0-0.1
		c0.5-5-0.6-5.2-2.7-5.8c-2.3-0.4-4.3-1.7-5.7-3.5c-0.3-0.4-0.2-1,0.2-1.3c0,0,0,0,0,0c0.4-0.3,1-0.2,1.3,0.2
		c1.1,1.5,2.8,2.5,4.6,2.8c2.9,0.8,4.7,1.6,4.2,7.8C629.7,533.7,629.2,534,628.8,534L628.8,534z M616.1,533.1
		c-0.2,0-0.4-0.1-0.6-0.3l-2.2-2.2c-0.3-0.3-0.3-0.9,0-1.2c0.3-0.3,0.9-0.3,1.2,0l1.6,1.6l4.2-4.1c0.3-0.3,0.9-0.3,1.2,0
		c0.3,0.3,0.3,0.9,0,1.2c0,0,0,0,0,0l-4.8,4.7C616.5,533,616.3,533.1,616.1,533.1z"/>
</g>
<g id="beLayer_14">
	<path class="st1" d="M642.3,546.5L642.3,546.5c-1.3,0-2.6-0.5-3.4-1.4c-1.9-2.2-1.5-6.1-1.5-6.1c0.2-3.6,2.6-4.9,4.8-4.9
		c2.4,0,4.8,1.3,5,5c0,0.2,0.4,3.9-1.5,6.1C644.8,546,643.6,546.5,642.3,546.5L642.3,546.5z M642.4,535.9c-1.3,0-3,0.4-3.1,3.2
		c-0.1,1-0.1,3.5,1,4.7c0.5,0.5,1.2,0.8,2,0.8l0,0.9l0-0.9c0.7,0,1.5-0.2,2-0.8c1.1-1.2,1.1-3.5,1.1-4.5l0,0l0-0.3
		C645.2,536.3,643.4,535.9,642.4,535.9L642.4,535.9z M631,556.9c-0.5,0-0.9-0.3-0.9-0.8c-0.5-6.1,1.3-7,4.1-7.8
		c1.8-0.3,3.5-1.3,4.6-2.8c0.3-0.4,0.9-0.5,1.3-0.2c0,0,0,0,0,0c0.4,0.3,0.5,0.9,0.2,1.3c-1.4,1.8-3.4,3.1-5.6,3.5
		c-2.1,0.6-3.2,0.8-2.7,5.8c0.1,0.5-0.3,0.9-0.8,1C631.2,556.9,631.2,556.9,631,556.9L631,556.9z M653.6,556.9L653.6,556.9
		c-0.6,0-0.9-0.4-0.9-0.9c0,0,0-0.1,0-0.1c0.5-5-0.6-5.2-2.7-5.8c-2.2-0.4-4.2-1.7-5.6-3.5c-0.3-0.4-0.3-1,0.1-1.3
		c0.4-0.3,1-0.3,1.3,0.1c0,0,0,0,0,0.1c1.1,1.5,2.8,2.5,4.6,2.8c2.8,0.7,4.7,1.6,4.1,7.7C654.5,556.6,654.1,556.9,653.6,556.9z
		 M641,555.9c-0.2,0-0.4-0.1-0.6-0.2l-2.2-2.2c-0.3-0.3-0.3-0.9,0-1.2s0.9-0.3,1.2,0l1.6,1.6l4.2-4.1c0.3-0.3,0.9-0.3,1.2,0
		s0.3,0.9,0,1.2l-4.8,4.7C641.4,555.8,641.2,555.9,641,555.9L641,555.9z"/>
</g>
<g id="bfLayer_14">
	<path class="st1" d="M663.6,565.7L663.6,565.7c-0.9,0-1.8-0.3-2.4-1c-1.3-1.5-1-4.2-1-4.3c-0.1-1.8,1.2-3.3,3-3.4
		c0.1,0,0.2,0,0.3,0c1.8-0.1,3.4,1.3,3.5,3.1c0,0.1,0,0.2,0,0.4c0,0.2,0.3,2.8-1,4.3C665.3,565.4,664.5,565.7,663.6,565.7
		L663.6,565.7z M663.7,558.3c-0.9,0-2.1,0.3-2.2,2.2c-0.2,1.1,0.1,2.3,0.7,3.3c0.4,0.4,0.9,0.6,1.4,0.5l0,0.7l0-0.7
		c0.5,0,1-0.2,1.4-0.5c0.6-0.9,0.9-2,0.7-3.1l0,0l0-0.2C665.6,558.6,664.4,558.3,663.7,558.3z M655.7,572.2c-0.3,0-0.6,0.2-0.7-0.2
		c-0.4-4.2,0.9-4.7,2.9-5.2c1.3-0.2,2.4-0.8,3.2-1.9c0.2-0.3,0.6-0.3,0.9-0.1c0,0,0,0,0,0c0.3,0.2,0.3,0.6,0.1,0.9
		c-1,1.3-2.4,2.1-3.9,2.4c-1.5,0.4-2.2,0.2-1.9,3.6C656.4,572.3,656.1,572.2,655.7,572.2L655.7,572.2z M671.4,572.2L671.4,572.2
		c-0.4,0-0.7,0.1-0.7-0.3c0.3-3.5-0.4-3.5-1.9-3.8c-1.6-0.2-3-1.1-3.9-2.3c-0.2-0.3-0.2-0.6,0.1-0.8c0,0,0,0,0,0
		c0.3-0.2,0.7-0.1,0.9,0.2c0.8,1,1.9,1.7,3.2,2c2,0.5,3.3,0.8,2.9,5C672,572.4,671.8,572.2,671.4,572.2L671.4,572.2z"/>
</g>
<g id="bgLayer_14">
	<path class="st7" d="M685.9,586.1L685.9,586.1c-1.4,0-2.7-0.5-3.6-1.5c-2-2.3-1.6-6.4-1.6-6.4c0.2-3.8,2.7-5.2,5-5.2
		c2.5,0,5,1.4,5.2,5.2c0,0.2,0.4,4.1-1.6,6.4C688.5,585.6,687.3,586.1,685.9,586.1L685.9,586.1z M686,575c-1.3,0-3.1,0.4-3.3,3.3
		c-0.1,1-0.1,3.6,1.1,5c0.5,0.6,1.3,0.9,2.1,0.8l0,1l0-1c0.8,0,1.5-0.3,2.1-0.8c1.1-1.2,1.2-3.7,1.1-4.7l0,0l0-0.3
		C688.9,575.4,687.1,575,686,575L686,575z M674.1,596.1c-0.5,0-0.9,0.1-1-0.4c-0.6-6.4,1.3-7.1,4.3-7.9c1.6-0.4,3.2-0.7,4.8-2.8
		c0.3-0.4,1-0.5,1.4-0.1c0,0,0,0,0,0c0.4,0.3,0.5,1,0.2,1.4c-1.4,1.9-3.5,3.2-5.9,3.7c-2.2,0.6-3.3,0.4-2.9,5.6
		C675.1,596.1,674.7,596.1,674.1,596.1L674.1,596.1z M697.7,596.1L697.7,596.1c-0.6,0-1,0-1-0.6c0.5-5.2-0.6-5.2-2.9-5.8
		c-2.3-0.4-4.4-1.7-5.9-3.5c-0.3-0.4-0.2-1,0.1-1.3c0,0,0,0,0,0c0.4-0.3,1.1-0.2,1.4,0.2c1.2,1.6,2.9,2.6,4.8,3
		c3,0.8,4.9,1.3,4.3,7.7C698.6,596.2,698.2,596.1,697.7,596.1L697.7,596.1z"/>
</g>
<g id="bhLayer_14">
	<path class="st1" d="M711.9,610.1L711.9,610.1c-1.4,0-2.7-0.5-3.6-1.5c-2-2.3-1.6-6.4-1.6-6.4c0.2-3.8,2.7-5.2,5-5.2
		c2.5,0,5,1.4,5.2,5.2c0,0.2,0.4,4.1-1.6,6.4C714.5,609.6,713.3,610.1,711.9,610.1L711.9,610.1z M712,599c-1.3,0-3.1,0.4-3.3,3.3
		c-0.1,1-0.1,3.6,1.1,5c0.5,0.6,1.3,0.9,2.1,0.8l0,1l0-1c0.8,0,1.5-0.3,2.1-0.8c1.1-1.2,1.2-3.7,1.1-4.7l0,0l0-0.3
		C714.9,599.4,713.1,599,712,599L712,599z M700.1,620.1c-0.5,0-0.9,0.1-1-0.4c-0.6-6.4,1.3-7.1,4.3-7.9c1.6-0.4,3.2-0.7,4.8-2.8
		c0.3-0.4,1-0.5,1.4-0.1c0,0,0,0,0,0c0.4,0.3,0.5,1,0.2,1.4c-1.4,1.9-3.5,3.2-5.9,3.7c-2.2,0.6-3.3,0.4-2.9,5.6
		C701.1,620.1,700.7,620.1,700.1,620.1L700.1,620.1z M723.7,620.1L723.7,620.1c-0.6,0-1,0-1-0.6c0.5-5.2-0.6-5.2-2.9-5.8
		c-2.3-0.4-4.4-1.7-5.9-3.5c-0.3-0.4-0.2-1,0.1-1.3c0,0,0,0,0,0c0.4-0.3,1.1-0.2,1.4,0.2c1.2,1.6,2.9,2.6,4.8,3
		c3,0.8,4.9,1.3,4.3,7.7C724.6,620.2,724.2,620.1,723.7,620.1L723.7,620.1z"/>
</g>
</svg>
